<?xml version="1.0" encoding="UTF-8"?>
<!DOCTYPE svg PUBLIC "-//W3C//DTD SVG 1.0//EN" "http://www.w3.org/TR/2001/REC-SVG-20010904/DTD/svg10.dtd">
<!-- Creator: CorelDRAW 2019 (64-Bit) -->
<svg xmlns="http://www.w3.org/2000/svg" xml:space="preserve" width="2.27083in" height="2.27083in" version="1.0" style="shape-rendering:geometricPrecision; text-rendering:geometricPrecision; image-rendering:optimizeQuality; fill-rule:evenodd; clip-rule:evenodd"
viewBox="0 0 2264.29 2264.29"
 xmlns:xlink="http://www.w3.org/1999/xlink">
 <defs>
  <style type="text/css">
   <![CDATA[
    .fil0 {fill:white}
    .fil1 {fill:white;fill-rule:nonzero}
   ]]>
  </style>
 </defs>
 <g id="Layer_x0020_1">
  <metadata id="CorelCorpID_0Corel-Layer"/>
  <path class="fil0" d="M1132.15 0c625.27,0 1132.15,506.88 1132.15,1132.15 0,625.27 -506.88,1132.15 -1132.15,1132.15 -625.27,0 -1132.15,-506.88 -1132.15,-1132.15 0,-625.27 506.88,-1132.15 1132.15,-1132.15zm0 119.44c559.3,0 1012.7,453.4 1012.7,1012.7 0,559.3 -453.4,1012.7 -1012.7,1012.7 -559.3,0 -1012.7,-453.4 -1012.7,-1012.7 0,-559.3 453.4,-1012.7 1012.7,-1012.7z"/>
  <path class="fil1" d="M715.3 1416.13l526.42 0 0 283.98 609.51 -567.97 -609.51 -567.96 0 283.98 -281.69 0 -244.72 0 -18.25 0c-156.19,0 -283.98,127.78 -283.98,283.98l0 0.01c0,156.19 127.79,283.98 283.98,283.98l18.25 0 0 0z"/>
 </g>
</svg>
